<svg width="28" height="28" viewBox="0 0 28 28" fill="none" xmlns="http://www.w3.org/2000/svg">
<path d="M11 0C4.935 0 0 4.935 0 11C0 17.065 4.935 22 11 22C17.065 22 22 17.065 22 11C22 4.935 17.065 0 11 0ZM11 20C6.038 20 2 15.963 2 11C2 6.038 6.038 2 11 2C15.963 2 20 6.038 20 11C20 15.963 15.963 20 11 20Z" fill="white"/>
<path d="M27.707 26.293L21.706 20.293C21.315 19.902 20.683 19.902 20.292 20.293C19.901 20.684 19.901 21.316 20.292 21.707L26.293 27.707C26.488 27.902 26.744 28 27 28C27.256 28 27.512 27.902 27.707 27.707C28.098 27.316 28.098 26.684 27.707 26.293Z" fill="white"/>
</svg>
